<svg xmlns="http://www.w3.org/2000/svg" version="1.1" xmlns:xlink="http://www.w3.org/1999/xlink" width="512" height="512" x="0" y="0" viewBox="0 0 512 512" style="enable-background:new 0 0 512 512" xml:space="preserve" class=""><g><path fill="#f2626b" fill-rule="evenodd" d="m409.45 142.21 4.8 53.33c.38 3.84 3.15 6.98 7.01 6.98s6.63-3.14 6.96-6.98l4.8-53.33c.66-7.42-4.28-14.14-11.76-14.14-7.53.01-12.47 6.73-11.81 14.14zm18.77 72.63c0-3.86-3.1-6.98-6.96-6.98s-7.01 3.13-7.01 6.98c0 3.86 3.15 6.99 7.01 6.99a6.978 6.978 0 0 0 6.96-6.99zm-.14 162.23c0 7.03-2.49 13.49-6.58 18.59l-137.19-114.7 71.81-60.03c14.48 20.41 38.23 33.78 65.13 33.78 2.26 0 4.56-.12 6.82-.31v122.67zM50.77 406.82h347.54c5.74 0 11.1-1.64 15.66-4.46L276.5 287.48l-26.48 22.13a39.716 39.716 0 0 1-25.49 9.26c-9.08 0-18.11-3.09-25.49-9.26l-26.48-22.13L35.11 402.36c4.56 2.82 9.92 4.46 15.66 4.46zM21 377.07v-192.2c0-7.03 2.45-13.49 6.54-18.59l137.23 114.68L27.54 395.65A29.583 29.583 0 0 1 21 377.07zm322.99-221.96H50.77c-5.74 0-11.1 1.64-15.66 4.46l170.33 142.37c11.24 9.39 26.95 9.39 38.19 0l107.18-89.6a79.485 79.485 0 0 1-9.31-37.4c0-6.84.84-13.48 2.49-19.83zm157.03 19.84c0 38.22-27.04 70.22-62.97 77.97v124.15c0 21.92-17.82 39.75-39.74 39.75H50.77c-21.92 0-39.79-17.83-39.79-39.75v-192.2c0-21.92 17.87-39.75 39.79-39.75h296.51c11.85-29.24 40.54-49.93 73.97-49.93 43.98-.01 79.77 35.77 79.77 79.76z" clip-rule="evenodd" opacity="1" data-original="#f2626b" class=""></path></g></svg>