<svg xmlns="http://www.w3.org/2000/svg" version="1.1" xmlns:xlink="http://www.w3.org/1999/xlink" width="512" height="512" x="0" y="0" viewBox="0 0 160 160" style="enable-background:new 0 0 512 512" xml:space="preserve" class=""><g><linearGradient id="a" x1="26.346" x2="137.74" y1="21.929" y2="133.324" gradientUnits="userSpaceOnUse"><stop offset="0" stop-color="#0fd100"></stop><stop offset="1" stop-color="#6bff00"></stop></linearGradient><path fill="url(#a)" d="M25 120.583h53a2 2 0 0 0 0-4H25c-.469 0-.913-.096-1.331-.245l39.734-44.736 5.186 4.709c2.683 2.436 6.047 3.654 9.411 3.654s6.729-1.218 9.411-3.654l5.187-4.709 2.94 3.31c.395.445.944.672 1.496.672a1.999 1.999 0 0 0 1.495-3.328l-2.969-3.343 39.214-35.605c.137.403.228.827.228 1.276v41.125a2 2 0 0 0 4 0V34.583c0-4.411-3.589-8-8-8H25c-4.411 0-8 3.589-8 8v78c0 4.412 3.589 8 8 8zm-3.933-7.338a4.003 4.003 0 0 1-.067-.662v-78c0-.449.091-.873.228-1.276l39.213 35.605zM131 30.583c.253 0 .5.029.74.075L84.722 73.35a9.964 9.964 0 0 1-13.445 0L24.26 30.658a4.01 4.01 0 0 1 .74-.075zm-15 44.834c-18.196 0-33 14.804-33 33s14.804 33 33 33 33-14.804 33-33-14.804-33-33-33zm0 62c-15.991 0-29-13.009-29-29 0-15.99 13.009-29 29-29s29 13.01 29 29-13.009 29-29 29zm20.914-37.915a2 2 0 0 1 0 2.829l-21.5 21.5c-.39.391-.902.585-1.414.585s-1.024-.195-1.414-.585l-14.5-14.5a2 2 0 0 1 2.828-2.829L114 119.588l20.086-20.086c.78-.78 2.048-.78 2.828 0z" opacity="1" data-original="url(#a)"></path></g></svg>