<svg xmlns="http://www.w3.org/2000/svg" version="1.1" xmlns:xlink="http://www.w3.org/1999/xlink" width="512" height="512" x="0" y="0" viewBox="0 0 504.5 504.5" style="enable-background:new 0 0 512 512" xml:space="preserve" class=""><g><path fill="#4fdbff" d="M496.885 94.865h-30v314.77h30a25.919 25.919 0 0 0 7.615-18.385v-278c0-7.18-2.91-13.68-7.615-18.385z" opacity="1" data-original="#4fdbff"></path><path fill="#8ae7ff" d="M474.5 113.25c0-7.18-2.91-13.68-7.615-18.385H75.115A25.919 25.919 0 0 0 67.5 113.25v278c0 7.18 2.91 13.68 7.615 18.385h391.77a25.919 25.919 0 0 0 7.615-18.385z" opacity="1" data-original="#8ae7ff"></path><path fill="#14cfff" d="m474.5 387.25-26 30h30c7.18 0 13.68-2.91 18.385-7.615z" opacity="1" data-original="#14cfff"></path><path fill="#4fdbff" d="M474.5 391.25v-4L286 198.75 75.115 409.635A25.919 25.919 0 0 0 93.5 417.25h355c14.359 0 26-11.641 26-26z" opacity="1" data-original="#4fdbff"></path><path fill="#8ae7ff" d="M478.5 87.25h-30l26 30 22.385-22.385A25.919 25.919 0 0 0 478.5 87.25z" opacity="1" data-original="#8ae7ff"></path><path fill="#c4f3ff" d="M448.5 87.25h-355c-7.18 0-13.68 2.91-18.385 7.615l173.762 173.762c20.503 20.502 53.744 20.503 74.246 0L474.5 117.25v-4c0-14.359-11.641-26-26-26z" opacity="1" data-original="#c4f3ff"></path><path fill="#3a6fd8" d="M127.5 259.75H7.5c-4.142 0-7.5-3.357-7.5-7.5s3.358-7.5 7.5-7.5h120c4.142 0 7.5 3.357 7.5 7.5s-3.358 7.5-7.5 7.5z" opacity="1" data-original="#3a6fd8"></path><g fill="#3b88f5"><path d="M97.5 199.75h-90c-4.142 0-7.5-3.357-7.5-7.5s3.358-7.5 7.5-7.5h90c4.142 0 7.5 3.357 7.5 7.5s-3.358 7.5-7.5 7.5zM97.5 319.75h-90c-4.142 0-7.5-3.357-7.5-7.5s3.358-7.5 7.5-7.5h90c4.142 0 7.5 3.357 7.5 7.5s-3.358 7.5-7.5 7.5z" fill="#3b88f5" opacity="1" data-original="#3b88f5"></path></g></g></svg>