<svg xmlns="http://www.w3.org/2000/svg" version="1.1" xmlns:xlink="http://www.w3.org/1999/xlink" width="512" height="512" x="0" y="0" viewBox="0 0 24 24" style="enable-background:new 0 0 512 512" xml:space="preserve" class=""><g><linearGradient id="a" x1="3.26" x2="19.74" y1="20.74" y2="4.26" gradientUnits="userSpaceOnUse"><stop offset="0" stop-color="#6d03a8"></stop><stop offset="1" stop-color="#fd60c4"></stop></linearGradient><path fill="url(#a)" d="M20 5.25h-6.59a.26.26 0 0 1-.17-.07l-1.42-1.42a1.73 1.73 0 0 0-1.23-.51H4A1.76 1.76 0 0 0 2.25 5v14A1.76 1.76 0 0 0 4 20.75h16A1.76 1.76 0 0 0 21.75 19V7A1.76 1.76 0 0 0 20 5.25zm-4.76 7.06a.74.74 0 0 1-1.05-.13l-.36-.48v3.42a2.44 2.44 0 0 1-2.68 2.13 2.44 2.44 0 0 1-2.68-2.16 2.43 2.43 0 0 1 2.68-2.15 3.27 3.27 0 0 1 1.19.22V9.5a.75.75 0 0 1 .5-.71.77.77 0 0 1 .84.25l1.71 2.22a.75.75 0 0 1-.15 1.05z" opacity="1" data-original="url(#a)"></path></g></svg>