<svg xmlns="http://www.w3.org/2000/svg" version="1.1" xmlns:xlink="http://www.w3.org/1999/xlink" width="512" height="512" x="0" y="0" viewBox="0 0 512 512" style="enable-background:new 0 0 512 512" xml:space="preserve" class=""><g><path fill="#ff4155" d="M512 256c-1.5 85.6-16.6 154.5-59.7 196.3-41.8 43.1-110.7 58.2-196.3 59.7-85.6-1.5-154.5-16.6-196.3-59.7C16.6 410.5 1.5 341.6 0 256c1.5-85.6 16.6-154.5 59.7-196.3C101.5 16.6 170.4 1.5 256 0c85.6 1.5 154.5 16.6 196.3 59.7 43.1 41.8 58.2 110.7 59.7 196.3z" opacity="1" data-original="#ff4155"></path><path fill="#ef0061" d="M452.3 59.7C410.5 16.6 341.6 1.5 256 0v512c85.6-1.5 154.5-16.6 196.3-59.7 43.1-41.8 58.2-110.7 59.7-196.3-1.5-85.6-16.6-154.5-59.7-196.3z" opacity="1" data-original="#ef0061"></path><path fill="#ffffff" d="M346.7 214.4c-5.3-13.2-16.4-21.4-26.2-28.6-1.8-1.3-3.6-2.7-5.4-4.1-13.1-10.2-24.6-21.5-34.1-33.7-4.9-6.3-10-12.6-14.9-18.6-4.7-5.8-9.6-11.8-14.2-17.7-2-2.6-5.5-3.6-8.6-2.6s-5.2 4-5.3 7.3c-.7 53.9.3 108.5 1.3 161.3.3 14 .5 28.3.8 42.7l.3.3c-8.4-7.4-19.4-12-31.4-12-26.1 0-47.3 21.2-47.3 47.3s21.2 47.3 47.3 47.3 47.3-21.2 47.3-47.3c0-1.4-.1-2.8-.2-4.2v.3c-.3-25-.8-50.3-1.3-74.8-.9-45.6-1.8-92.5-1.5-139.1.2.3.5.6.7.9 4.9 6 9.9 12.2 14.7 18.3 10.3 13.2 22.7 25.5 36.9 36.4 1.8 1.4 3.8 2.8 5.7 4.3 8.9 6.6 17.3 12.8 21 21.9 4.7 11.8 2.6 26.3-5.6 37.9-8 11.3-20.2 17.7-32.7 17.2-4.3-.2-7.9 3.1-8.1 7.4s3.1 7.9 7.4 8.1c17.7.8 34.9-8.1 46-23.7 11.4-15.9 14.2-35.6 7.4-52.5z" opacity="1" data-original="#ffffff"></path><path fill="#ffebee" d="M346.7 214.4c-5.3-13.2-16.4-21.4-26.2-28.6-1.8-1.3-3.6-2.7-5.4-4.1-13.1-10.2-24.6-21.5-34.1-33.7-4.9-6.3-10-12.6-14.9-18.6-3.3-4.1-6.7-8.3-10.1-12.5v24.7c4.3 5.2 8.6 10.6 12.8 15.9 10.3 13.2 22.7 25.5 36.9 36.4 1.8 1.4 3.8 2.8 5.7 4.3 8.9 6.6 17.3 12.8 21 21.9 4.7 11.8 2.6 26.3-5.6 37.9-8 11.3-20.2 17.7-32.7 17.2-4.3-.2-7.9 3.1-8.1 7.4s3.1 7.9 7.4 8.1c17.7.8 34.9-8.1 46-23.7 11.3-16 14.1-35.7 7.3-52.6z" opacity="1" data-original="#ffebee"></path></g></svg>