<svg xmlns="http://www.w3.org/2000/svg" version="1.1" xmlns:xlink="http://www.w3.org/1999/xlink" width="512" height="512" x="0" y="0" viewBox="0 0 64 64" style="enable-background:new 0 0 512 512" xml:space="preserve" class=""><g><linearGradient id="a" x1="7.69" x2="56.31" y1="7.69" y2="56.31" gradientUnits="userSpaceOnUse"><stop offset="0" stop-color="#ee2a7b"></stop><stop offset="1" stop-color="#da1c5c"></stop></linearGradient><rect width="58" height="58" x="3" y="3" fill="url(#a)" rx="16.02" opacity="1" data-original="url(#a)" class=""></rect><path fill="#ffffff" d="M23.57 42.82a2.57 2.57 0 0 1-2.33-1.46l-4.14-8.47-4.25.06a1.5 1.5 0 1 1 0-3l4.5-.06a2.62 2.62 0 0 1 2.38 1.46L23.44 39l3.69-15.84a2.58 2.58 0 0 1 2.53-2h.06a2.58 2.58 0 0 1 2.5 2.12l1.57 8.47 1-2.75a2.6 2.6 0 0 1 5 .39l1.37 7.46 1.37-4.82A2.61 2.61 0 0 1 45 30.16h6.15a1.5 1.5 0 0 1 0 3h-5.83l-1.75 6.18a2.6 2.6 0 0 1-5.06-.24l-1.41-7.67-1 2.74a2.6 2.6 0 0 1-5-.39l-1.5-8.06-3.49 15.09a2.57 2.57 0 0 1-2.24 2z" opacity="1" data-original="#ffffff"></path></g></svg>